<?xml version="1.0" encoding="UTF-8" standalone="no"?>
<!-- Created with Inkscape (http://www.inkscape.org/) -->

<svg
   xmlns:dc="http://purl.org/dc/elements/1.1/"
   xmlns:cc="http://creativecommons.org/ns#"
   xmlns:rdf="http://www.w3.org/1999/02/22-rdf-syntax-ns#"
   xmlns:svg="http://www.w3.org/2000/svg"
   xmlns="http://www.w3.org/2000/svg"
   xmlns:sodipodi="http://sodipodi.sourceforge.net/DTD/sodipodi-0.dtd"
   xmlns:inkscape="http://www.inkscape.org/namespaces/inkscape"
   width="182.110626"
   height="42.60527"
   viewBox="0 0 21.725103 3.3351446"
   version="1.1"
   id="svg7666"
   inkscape:version="0.92.0 r15299"
   sodipodi:docname="vivanta.svg">
  <defs
     id="defs7660" />
  <sodipodi:namedview
     id="base"
     pagecolor="#ffffff"
     bordercolor="#666666"
     borderopacity="1.0"
     inkscape:pageopacity="0.0"
     inkscape:pageshadow="2"
     inkscape:zoom="10.949796"
     inkscape:cx="40.959667"
     inkscape:cy="-8.5079516"
     inkscape:document-units="mm"
     inkscape:current-layer="layer1"
     showgrid="false"
     fit-margin-top="0"
     fit-margin-left="0"
     fit-margin-right="0"
     fit-margin-bottom="0"
     units="px"
     inkscape:window-width="1280"
     inkscape:window-height="744"
     inkscape:window-x="-4"
     inkscape:window-y="-4"
     inkscape:window-maximized="1" />
  <metadata
     id="metadata7663">
    <rdf:RDF>
      <cc:Work
         rdf:about="">
        <dc:format>image/svg+xml</dc:format>
        <dc:type
           rdf:resource="http://purl.org/dc/dcmitype/StillImage" />
        <dc:title></dc:title>
      </cc:Work>
    </rdf:RDF>
  </metadata>
  <g
     inkscape:label="Layer 1"
     inkscape:groupmode="layer"
     id="layer1"
     transform="translate(-185.71037,-281.58642)">
    <path
       inkscape:connector-curvature="0"
       id="path5965"
       style="fill:#3e2a7c;fill-opacity:1;fill-rule:nonzero;stroke:none;stroke-width:0.35277778"
       d="m 194.45995,281.72015 -1.36737,2.51248 c -0.0571,0.0836 -0.13264,0.0857 -0.18944,0.0568 -0.0317,-0.0159 -0.0557,-0.043 -0.0723,-0.0744 l -1.29716,-2.49484 h -0.38629 c 0.054,0.10089 1.48343,2.78201 1.51624,2.84304 0.0437,0.0818 0.11183,0.21978 0.28786,0.21942 0.11748,-3.4e-4 0.19156,-0.15557 0.19156,-0.15557 0,0 1.5434,-2.90689 1.54446,-2.90689" />
    <path
       inkscape:connector-curvature="0"
       id="path5969"
       style="fill:#3e2a7c;fill-opacity:1;fill-rule:nonzero;stroke:none;stroke-width:0.35277778"
       d="m 195.03004,283.73169 0.75036,-1.44286 c 0.0162,-0.0314 0.0409,-0.0586 0.0723,-0.0744 0.0564,-0.0289 0.13229,-0.0268 0.18944,0.0568 l 0.7934,1.45768 z m 0.87101,-2.01048 c -0.17604,-3.5e-4 -0.24412,0.13758 -0.28787,0.21907 -0.0328,0.061 -1.46226,2.7425 -1.51624,2.84339 h 0.38594 l 0.47414,-0.91157 h 1.9565 l 0.49601,0.91157 h 0.22718 c -6.8e-4,0 -1.5441,-2.90689 -1.5441,-2.90689 0,0 -0.0737,-0.15557 -0.19156,-0.15557" />
    <path
       inkscape:connector-curvature="0"
       id="path5973"
       style="fill:#3e2a7c;fill-opacity:1;fill-rule:nonzero;stroke:none;stroke-width:0.35277778"
       d="m 204.69615,283.73095 0.75036,-1.44286 c 0.0162,-0.0314 0.0409,-0.0582 0.0723,-0.0744 0.0564,-0.0286 0.13229,-0.0268 0.18944,0.0568 l 0.7934,1.45768 z m 2.37949,1.05198 h 0.22754 c -0.001,0 -1.54446,-2.90689 -1.54446,-2.90689 0,0 -0.0737,-0.15522 -0.19156,-0.15557 -0.17604,-3.5e-4 -0.24412,0.13758 -0.28787,0.21943 -0.0324,0.061 -1.46226,2.74214 -1.51624,2.84303 h 0.38594 l 0.47414,-0.91122 h 1.9565" />
    <path
       inkscape:connector-curvature="0"
       id="path5977"
       style="fill:#3e2a7c;fill-opacity:1;fill-rule:nonzero;stroke:none;stroke-width:0.35277778"
       d="m 187.78786,284.2326 c -0.0571,0.0836 -0.13264,0.0857 -0.18944,0.0568 -0.0317,-0.0159 -0.0561,-0.043 -0.0723,-0.0744 l -1.29752,-2.49237 h -0.38594 c 0.0536,0.10124 1.48379,2.77953 1.5166,2.84056 0.0434,0.0819 0.11147,0.21978 0.28751,0.21943 0.11747,0 0.1912,-0.15557 0.1912,-0.15557 0,0 1.54376,-2.90442 1.54482,-2.90442 h -0.22754" />
    <path
       inkscape:connector-curvature="0"
       id="path5981"
       style="fill:#3e2a7c;fill-opacity:1;fill-rule:nonzero;stroke:none;stroke-width:0.35277778"
       d="m 200.69353,284.41432 c 0,0.0314 -0.0392,0.0455 -0.0589,0.0208 -0.33796,-0.42015 -1.78224,-2.20098 -2.12584,-2.62431 -0.0466,-0.0575 -0.11642,-0.0907 -0.1905,-0.0907 -0.12594,0 -0.2279,0.10195 -0.2279,0.22789 l -0.002,2.83845 h 0.2039 l -0.001,-2.58374 c 0,-0.0462 0.0579,-0.067 0.0868,-0.0307 0.35278,0.43886 1.62666,2.01437 2.01824,2.49802 0.0529,0.0656 0.1651,0.11924 0.24942,0.11924 h 0.0212 c 0.12453,0 0.22543,-0.10089 0.22543,-0.22542 v -2.8448 h -0.19968" />
    <path
       inkscape:connector-curvature="0"
       id="path5985"
       style="fill:#3e2a7c;fill-opacity:1;fill-rule:nonzero;stroke:none;stroke-width:0.35277778"
       d="m 204.258,281.71871 h -2.75237 v 0.18874 l 1.05551,-10e-4 c 0.0596,0 0.1083,0.0483 0.1083,0.1083 l 3.5e-4,2.7686 h 0.41593 l 3.4e-4,-2.7686 c 0,-0.06 0.0483,-0.1083 0.10831,-0.1083 l 1.06433,10e-4" />
    <path
       d="m 190.06963,284.78509 h 0.38065 v -3.06494 h -0.38065 z"
       style="fill:#3e2a7c;fill-opacity:1;fill-rule:nonzero;stroke:none;stroke-width:0.35277778"
       id="path5987"
       inkscape:connector-curvature="0" />
  </g>
</svg>
